<svg width="20" height="20" viewBox="0 0 20 20" fill="none" xmlns="http://www.w3.org/2000/svg">
<path d="M19.7069 11.7181L18.3997 10.9634C18.4412 10.6248 18.4615 10.3069 18.4615 10C18.4615 9.69318 18.4412 9.37522 18.3997 9.03662L19.7069 8.28193C19.9871 8.12014 20.0832 7.76178 19.9214 7.48154L17.1417 2.66701C16.9799 2.38678 16.6215 2.29072 16.3413 2.45256L15.0395 3.20408C14.5259 2.8242 13.9653 2.5026 13.3655 2.24365V0.734436C13.3655 0.410842 13.1031 0.148499 12.7795 0.148499H7.22039C6.8968 0.148499 6.63445 0.410842 6.63445 0.734436V2.24362C6.03465 2.50252 5.47403 2.8242 4.96039 3.20404L3.65867 2.45252C3.37844 2.29072 3.02008 2.38674 2.85828 2.66697L0.0785967 7.48154C-0.0832002 7.76178 0.0128154 8.12014 0.29305 8.28193L1.60016 9.03662C1.55867 9.37522 1.53836 9.69318 1.53836 10C1.53836 10.3069 1.55867 10.6248 1.60016 10.9634L0.29305 11.7181C0.0128154 11.8799 -0.0832002 12.2383 0.0785967 12.5185L2.85828 17.333C3.02008 17.6133 3.37844 17.7093 3.65867 17.5475L4.96039 16.796C5.47403 17.1758 6.03465 17.4975 6.63445 17.7564V19.2656C6.63445 19.5892 6.8968 19.8515 7.22039 19.8515H12.7796C13.1032 19.8515 13.3655 19.5892 13.3655 19.2656V17.7564C13.9654 17.4974 14.526 17.1758 15.0396 16.796L16.3413 17.5475C16.6216 17.7093 16.9799 17.6133 17.1417 17.3331L19.9214 12.5185C20.0832 12.2383 19.9872 11.8799 19.7069 11.7181ZM8.51305 13.0873C8.44492 13.113 8.375 13.1252 8.30625 13.1252C8.06945 13.1252 7.84649 12.9806 7.75797 12.746L7.43043 11.8781H5.17559L4.84442 12.7476C4.72922 13.05 4.39074 13.2018 4.08832 13.0867C3.7859 12.9715 3.63414 12.6329 3.7493 12.3306C3.7493 12.3306 5.65953 7.31514 5.66133 7.31076C5.76945 7.04639 6.02383 6.87537 6.30945 6.87506H6.31024C6.59555 6.87506 6.84996 7.04549 6.95852 7.30943C6.9607 7.31475 8.85434 12.3322 8.85434 12.3322C8.96863 12.635 8.81582 12.973 8.51305 13.0873ZM11.617 10.913C11.4268 10.913 11.0865 10.9145 10.789 10.916V12.5391C10.789 12.8627 10.5266 13.125 10.203 13.125C9.87945 13.125 9.61711 12.8627 9.61711 12.5391C9.61711 12.5391 9.61711 7.46287 9.61711 7.46283C9.6166 7.30713 9.67813 7.1576 9.78805 7.04729C9.89797 6.93701 10.0473 6.87502 10.203 6.87502H11.617C12.7458 6.87502 13.6641 7.78072 13.6641 8.894C13.6641 10.0073 12.7458 10.913 11.617 10.913ZM15.5859 12.5391C15.5859 12.8627 15.3236 13.125 15 13.125C14.6764 13.125 14.4141 12.8627 14.4141 12.5391V7.46096C14.4141 7.13736 14.6764 6.87502 15 6.87502C15.3236 6.87502 15.5859 7.13736 15.5859 7.46096V12.5391Z" fill="#B9C3FF"/>
</svg>
