<svg width="20" height="21" viewBox="0 0 20 21" fill="none" xmlns="http://www.w3.org/2000/svg">
<path d="M19.9533 13.1258C19.9323 13.0356 19.891 12.9513 19.8325 12.8789V12.8697C19.7721 12.8012 19.7069 12.737 19.6372 12.6777C19.56 12.6213 19.4756 12.5751 19.3862 12.5405C19.3412 12.5212 19.2945 12.5059 19.2467 12.4948C19.099 12.4668 18.953 12.4302 18.8097 12.385C18.6702 12.3489 18.5335 12.3031 18.4007 12.2478C18.3956 12.2484 18.3905 12.2479 18.3857 12.2463C18.3808 12.2448 18.3764 12.2422 18.3728 12.2387C18.1071 12.1378 17.8518 12.0122 17.6104 11.8637C17.2387 11.6432 16.898 11.3757 16.597 11.0681C16.3251 10.7899 16.0851 10.4832 15.8811 10.1536C15.3842 9.35902 15.1233 8.4435 15.128 7.51065C15.1277 7.33957 15.137 7.16861 15.1559 6.99853V6.98938C15.1602 6.85363 15.1327 6.71871 15.0754 6.59512C15.0181 6.47154 14.9327 6.3626 14.8256 6.27678C14.7186 6.19097 14.5929 6.13059 14.4583 6.10032C14.3237 6.07006 14.1838 6.07074 14.0495 6.1023L13.8449 6.12974C13.6727 6.15589 13.4985 6.16812 13.3243 6.16632C13.2124 6.16935 13.1004 6.16323 12.9896 6.14803C12.8708 6.14121 12.7527 6.12593 12.6363 6.1023C12.5247 6.08401 12.4038 6.05658 12.283 6.02914C12.2644 6.02914 12.2551 6.02 12.2365 6.02C12.2006 6.0134 12.166 6.00105 12.1342 5.98342C11.9962 5.94832 11.8622 5.89928 11.7344 5.83709C11.2979 5.66334 10.8904 5.42596 10.5257 5.13292C10.4321 5.0669 10.353 4.98291 10.2933 4.886C9.9312 4.34605 9.68447 3.73933 9.56811 3.1027C9.54952 2.98381 9.53092 2.86492 9.52163 2.75518C9.51233 2.64544 9.50303 2.52655 9.50303 2.41681C9.50303 2.28878 9.51233 2.16989 9.52163 2.04186C9.52796 1.92501 9.5435 1.80882 9.56811 1.69434C9.60294 1.55582 9.6031 1.41107 9.56858 1.27247C9.53406 1.13388 9.46588 1.00559 9.36991 0.898597C9.27393 0.791602 9.153 0.709094 9.0175 0.658147C8.88199 0.607199 8.73595 0.58933 8.59188 0.606071L8.13631 0.688377C7.83749 0.743187 7.54249 0.816494 7.25306 0.907861C7.1136 0.953586 6.96484 0.999312 6.82538 1.04504C5.55872 1.48359 4.39277 2.16425 3.39463 3.04782C3.28306 3.14842 3.18079 3.24902 3.07852 3.34961C2.04878 4.33589 1.24301 5.52544 0.714196 6.84C0.185383 8.15457 -0.0544847 9.56437 0.0103721 10.9767C0.0298208 11.437 0.0826403 11.8955 0.168428 12.3484C0.583593 14.4967 1.69294 16.4557 3.33133 17.9338C4.96973 19.4119 7.04958 20.3301 9.2613 20.5516C9.2821 20.5591 9.30427 20.5622 9.32638 20.5608C11.0012 20.7062 12.6867 20.4456 14.2354 19.8017C14.7171 19.5938 15.1832 19.3524 15.63 19.0793C16.306 18.6723 16.9275 18.1839 17.4802 17.6252C17.6662 17.4423 17.8428 17.2502 18.0195 17.0582C18.0195 17.049 18.0195 17.049 18.0288 17.049C18.3705 16.6574 18.6784 16.2383 18.9492 15.7962C19.371 15.1288 19.7083 14.4132 19.9533 13.6653C19.97 13.6208 19.9825 13.5749 19.9905 13.5282C20.011 13.393 19.9982 13.2551 19.9533 13.1258ZM5.35639 14.8176C5.12745 14.8167 4.90393 14.7491 4.71409 14.6232C4.52425 14.4973 4.37661 14.3189 4.28985 14.1105C4.2031 13.9022 4.18111 13.6731 4.22667 13.4525C4.27224 13.2318 4.38331 13.0293 4.54584 12.8707C4.70837 12.7122 4.91506 12.6045 5.13978 12.5615C5.36449 12.5184 5.59714 12.5419 5.8083 12.6289C6.01945 12.7159 6.19964 12.8626 6.32606 13.0503C6.45249 13.238 6.51948 13.4584 6.51856 13.6836C6.51857 13.8333 6.48844 13.9815 6.42992 14.1197C6.37141 14.2579 6.28565 14.3833 6.17761 14.4887C6.06957 14.5942 5.94138 14.6775 5.80043 14.7339C5.65948 14.7904 5.50856 14.8188 5.35639 14.8176ZM5.84915 8.24227C5.61982 8.24317 5.39538 8.17705 5.20432 8.05229C5.01325 7.92753 4.86417 7.74976 4.77598 7.54152C4.6878 7.33329 4.66448 7.10399 4.709 6.8827C4.75351 6.66141 4.86385 6.45812 5.02601 6.29861C5.18818 6.13911 5.39485 6.03058 5.61982 5.98679C5.84479 5.943 6.07792 5.96594 6.28962 6.05268C6.50132 6.13942 6.68205 6.28606 6.80889 6.474C6.93572 6.66193 7.00295 6.88269 7.00203 7.10827C7.00008 7.40843 6.87799 7.69575 6.6622 7.90801C6.44642 8.12026 6.15431 8.24035 5.84915 8.24227ZM12.8315 15.9608C12.6026 15.9617 12.3785 15.8958 12.1876 15.7714C11.9968 15.6471 11.8477 15.4698 11.7592 15.2621C11.6708 15.0544 11.6469 14.8256 11.6907 14.6046C11.7344 14.3835 11.8439 14.1802 12.0051 14.0204C12.1663 13.8605 12.3721 13.7512 12.5965 13.7064C12.8208 13.6616 13.0537 13.6832 13.2655 13.7686C13.4774 13.8539 13.6588 13.9991 13.7867 14.1858C13.9147 14.3726 13.9835 14.5924 13.9844 14.8176C13.9844 15.1192 13.8632 15.4086 13.6473 15.6227C13.4313 15.8369 13.1381 15.9584 12.8315 15.9608Z" fill="#B9C3FF"/>
</svg>
