<svg width="20" height="21" viewBox="0 0 20 21" fill="none" xmlns="http://www.w3.org/2000/svg">
<path d="M13.9794 20.4H10.8036C10.5904 20.4 10.386 20.3153 10.2354 20.1646C10.0847 20.0139 10 19.8096 10 19.5964V18.3594C10.0006 18.1694 9.96248 17.9813 9.88795 17.8065C9.81342 17.6318 9.70405 17.474 9.56653 17.3429C9.21921 17.0041 8.71476 16.8161 8.18754 16.8291C7.23399 16.8514 6.42865 17.6907 6.42865 18.6621V19.5964C6.42865 19.8096 6.34399 20.0139 6.1933 20.1646C6.0426 20.3153 5.83821 20.4 5.6251 20.4H2.4832C2.15714 20.4 1.83426 20.3358 1.53301 20.211C1.23176 20.0862 0.958039 19.9033 0.727473 19.6727C0.261824 19.2071 0.000225067 18.5755 0.000225067 17.917V14.7751C0.000225067 14.562 0.084885 14.3576 0.23558 14.2069C0.386276 14.0562 0.590663 13.9716 0.803778 13.9716H2.0408C2.44972 13.9716 2.84748 13.7966 3.16087 13.4805C3.33522 13.3048 3.47309 13.0963 3.56656 12.8671C3.66003 12.6378 3.70725 12.3924 3.7055 12.1448C3.69211 11.1989 2.91355 10.4002 2.00509 10.4002H0.803778C0.590663 10.4002 0.386276 10.3156 0.23558 10.1649C0.084885 10.0142 0.000225067 9.80978 0.000225067 9.59667V6.45477C0.000225067 6.1287 0.0644493 5.80583 0.189231 5.50458C0.314012 5.20333 0.496907 4.92961 0.727473 4.69904C1.19312 4.23339 1.82468 3.97179 2.4832 3.97179H4.94922C5.04394 3.97179 5.13478 3.93417 5.20175 3.86719C5.26873 3.80021 5.30635 3.70938 5.30635 3.61466V3.32538C5.30635 2.93689 5.38373 2.55229 5.53397 2.19404C5.68421 1.83578 5.90431 1.51103 6.18141 1.23875C6.45851 0.966467 6.78707 0.752105 7.14791 0.608175C7.50875 0.464244 7.89465 0.393627 8.28307 0.400444C9.86741 0.428122 11.1562 1.75666 11.1562 3.36154V3.61466C11.1562 3.70938 11.1938 3.80021 11.2608 3.86719C11.3278 3.93417 11.4186 3.97179 11.5134 3.97179H13.9794C14.301 3.97179 14.6195 4.03514 14.9166 4.15822C15.2137 4.28129 15.4837 4.46169 15.7111 4.6891C15.9385 4.91652 16.1189 5.1865 16.242 5.48363C16.3651 5.78077 16.4284 6.09923 16.4284 6.42084V8.88686C16.4284 8.98158 16.4661 9.07242 16.533 9.13939C16.6 9.20637 16.6908 9.244 16.7856 9.244H17.0382C18.6712 9.244 19.9998 10.5386 19.9998 12.1296C19.9998 13.764 18.6877 15.0939 17.0748 15.0939H16.7856C16.6908 15.0939 16.6 15.1315 16.533 15.1985C16.4661 15.2654 16.4284 15.3563 16.4284 15.451V17.9509C16.4284 18.2726 16.3651 18.591 16.242 18.8882C16.1189 19.1853 15.9385 19.4553 15.7111 19.6827C15.4837 19.9101 15.2137 20.0905 14.9166 20.2136C14.6195 20.3366 14.301 20.4 13.9794 20.4Z" fill="#B9C3FF"/>
</svg>
