<svg width="20" height="21" viewBox="0 0 20 21" fill="none" xmlns="http://www.w3.org/2000/svg">
<path d="M1.46508 8.36497C1.29353 8.36497 1.12198 8.29418 0.997894 8.15594C0.768883 7.89778 0.792201 7.50305 1.04953 7.27404C2.71922 5.78839 4.86193 4.97061 7.08375 4.97061C7.39853 4.97061 7.70416 4.9881 8.01061 5.02308C8.35288 5.06138 8.59938 5.37117 8.56024 5.71427C8.52193 6.05737 8.21714 6.30054 7.86904 6.26473C7.61005 6.23475 7.3519 6.21976 7.08375 6.21976C5.16838 6.21976 3.32048 6.92595 1.88063 8.20757C1.76154 8.31333 1.61331 8.36497 1.46508 8.36497Z" fill="#B9C3FF"/>
<path d="M0.624129 11.5395C0.502545 11.5395 0.379296 11.5037 0.270204 11.4295C-0.0137696 11.2338 -0.0853875 10.8449 0.110312 10.561C1.70006 8.2517 4.30662 6.87347 7.08389 6.87347C7.44448 6.87347 7.77009 6.89346 8.07988 6.93593C8.42131 6.98173 8.66115 7.29652 8.61535 7.63795C8.56955 7.97939 8.25893 8.22089 7.91249 8.17342C7.66266 8.13928 7.38369 8.12262 7.08389 8.12262C4.71801 8.12262 2.49535 9.29932 1.13961 11.2688C1.01886 11.4445 0.823993 11.5395 0.624129 11.5395Z" fill="#B9C3FF"/>
<path d="M5.51492 20.7932C5.3567 20.7932 5.19764 20.7332 5.07689 20.6133C4.96613 20.505 2.37956 17.9235 2.37956 15.4168C2.37956 12.8011 4.48979 10.6734 7.08385 10.6734C9.67792 10.6734 11.7881 12.8011 11.7881 15.4168C11.7881 15.7616 11.5083 16.0414 11.1636 16.0414C10.8188 16.0414 10.539 15.7616 10.539 15.4168C10.539 13.4906 8.98922 11.9225 7.08385 11.9225C5.17848 11.9225 3.62871 13.4898 3.62871 15.4168C3.62871 17.3997 5.9313 19.7022 5.95462 19.7247C6.19946 19.9679 6.20195 20.3626 5.95962 20.6083C5.8372 20.7307 5.67648 20.7932 5.51492 20.7932Z" fill="#B9C3FF"/>
<path d="M2.48264 19.8705C2.3011 19.8705 2.12122 19.7914 1.99797 19.6398C1.01364 18.4281 0.493164 16.9683 0.493164 15.4168C0.493164 13.5773 1.26097 11.8026 2.5984 10.5485C3.93915 9.29268 5.68379 8.67227 7.52004 8.78553C8.01554 8.82134 8.49438 8.91294 8.9499 9.05618C9.27968 9.15944 9.46205 9.51003 9.35879 9.83898C9.25553 10.1679 8.90243 10.3528 8.57599 10.2479C8.21207 10.1338 7.82817 10.0613 7.43427 10.0322C5.96444 9.93807 4.53874 10.4419 3.45281 11.4595C2.36605 12.478 1.74231 13.9204 1.74231 15.416C1.74231 16.6776 2.16619 17.8652 2.96731 18.852C3.1855 19.1193 3.14386 19.5124 2.87654 19.7306C2.76079 19.8238 2.62171 19.8705 2.48264 19.8705Z" fill="#B9C3FF"/>
<path d="M8.65037 20.7931C7.42038 20.7931 4.56898 18.5105 4.29251 15.9698C4.19507 15.0529 4.47905 14.1493 5.07031 13.489C5.59412 12.9035 6.3053 12.5787 7.07394 12.5738H7.09227C7.83592 12.5738 8.53462 12.8627 9.06425 13.389C9.60639 13.927 9.90535 14.6473 9.90535 15.4168V15.7324C9.90535 16.437 10.4691 17.0107 11.162 17.0107C11.5001 17.0107 11.814 16.8791 12.0464 16.641C12.2954 16.3978 12.4261 16.0789 12.4261 15.7333V15.6283C12.4261 14.6398 12.1721 13.6713 11.6925 12.8286C11.5217 12.5288 11.6258 12.1474 11.9256 11.9767C12.2254 11.8059 12.6068 11.9117 12.7767 12.2107C13.3638 13.2425 13.6744 14.4242 13.6744 15.6283V15.7333C13.6744 16.4178 13.4105 17.0532 12.9291 17.5237C12.4703 17.9951 11.8382 18.2607 11.1603 18.2607C9.77877 18.2607 8.65453 17.1273 8.65453 15.7333V15.4176C8.65453 14.9838 8.48715 14.5782 8.18319 14.2759C7.88756 13.982 7.48616 13.8446 7.07977 13.8246C6.55263 13.8271 6.20121 14.0977 5.99968 14.3234C5.64825 14.7156 5.47337 15.2819 5.53249 15.8382C5.75151 17.8327 8.13572 19.544 8.65037 19.544C8.99514 19.544 9.27494 19.8238 9.27494 20.1686C9.27494 20.5133 8.99514 20.7931 8.65037 20.7931Z" fill="#B9C3FF"/>
<path d="M10.4973 19.843C8.65023 19.843 6.42008 17.7269 6.42008 15.0995C6.42008 14.7548 6.69989 14.475 7.04466 14.475C7.38942 14.475 7.66923 14.7548 7.66923 15.0995C7.66923 17.0282 9.38056 18.5938 10.4973 18.5938C10.8421 18.5938 11.1219 18.8736 11.1219 19.2184C11.1219 19.5632 10.8421 19.843 10.4973 19.843Z" fill="#B9C3FF"/>
<path d="M14.587 0.806793C11.6023 0.806793 9.17399 3.23514 9.17399 6.21977C9.17399 9.2044 11.6023 11.6327 14.587 11.6327C17.5716 11.6327 19.9999 9.2044 19.9999 6.21977C19.9999 3.23514 17.5716 0.806793 14.587 0.806793ZM17.1386 4.96563L14.2239 8.29669C14.1098 8.4266 13.9474 8.50405 13.7742 8.50988C13.7675 8.50988 13.76 8.50988 13.7534 8.50988C13.5876 8.50988 13.4286 8.44409 13.312 8.32667L11.6465 6.66114C11.4025 6.41714 11.4025 6.02157 11.6465 5.77757C11.8905 5.53357 12.286 5.53357 12.53 5.77757L13.7234 6.97093L16.1984 4.14285C16.4257 3.88303 16.8204 3.85638 17.0794 4.08373C17.3401 4.31107 17.3659 4.7058 17.1386 4.96563Z" fill="#B9C3FF"/>
</svg>
