<svg width="20" height="20" viewBox="0 0 20 20" fill="none" xmlns="http://www.w3.org/2000/svg">
<path d="M10.0001 2.14294C10.5918 2.14294 11.0715 1.66324 11.0715 1.07151C11.0715 0.479772 10.5918 7.62939e-05 10.0001 7.62939e-05C9.40832 7.62939e-05 8.92863 0.479772 8.92863 1.07151C8.92863 1.66324 9.40832 2.14294 10.0001 2.14294Z" fill="#B9C3FF"/>
<path d="M1.07143 11.0714C1.66316 11.0714 2.14285 10.5917 2.14285 9.99994C2.14285 9.40821 1.66316 8.92851 1.07143 8.92851C0.479694 8.92851 0 9.40821 0 9.99994C0 10.5917 0.479694 11.0714 1.07143 11.0714Z" fill="#B9C3FF"/>
<path d="M10.0001 19.9999C10.5918 19.9999 11.0715 19.5202 11.0715 18.9285C11.0715 18.3368 10.5918 17.8571 10.0001 17.8571C9.40832 17.8571 8.92863 18.3368 8.92863 18.9285C8.92863 19.5202 9.40832 19.9999 10.0001 19.9999Z" fill="#B9C3FF"/>
<path d="M18.9287 11.0714C19.5204 11.0714 20.0001 10.5917 20.0001 9.99999C20.0001 9.40825 19.5204 8.92856 18.9287 8.92856C18.337 8.92856 17.8573 9.40825 17.8573 9.99999C17.8573 10.5917 18.337 11.0714 18.9287 11.0714Z" fill="#B9C3FF"/>
<path d="M1.07146 7.49977C1.16618 7.49977 1.25702 7.46215 1.32399 7.39517C1.39097 7.32819 1.4286 7.23735 1.4286 7.14263C1.43039 5.62766 2.03301 4.17525 3.10426 3.104C4.1755 2.03275 5.62791 1.43013 7.14288 1.42834C7.2376 1.42834 7.32844 1.39071 7.39542 1.32373C7.46239 1.25675 7.50002 1.16591 7.50002 1.07119C7.50002 0.976473 7.46239 0.885633 7.39542 0.818655C7.32844 0.751678 7.2376 0.71405 7.14288 0.71405C5.43853 0.716035 3.80455 1.39397 2.59939 2.59913C1.39423 3.80429 0.716298 5.43827 0.714314 7.14263C0.714314 7.23735 0.751941 7.32819 0.818918 7.39517C0.885895 7.46215 0.976736 7.49977 1.07146 7.49977Z" fill="#B9C3FF"/>
<path d="M7.14288 18.5713C5.62791 18.5695 4.1755 17.9669 3.10426 16.8957C2.03301 15.8244 1.43039 14.372 1.4286 12.857C1.4286 12.7623 1.39097 12.6715 1.32399 12.6045C1.25702 12.5375 1.16618 12.4999 1.07146 12.4999C0.976736 12.4999 0.885895 12.5375 0.818918 12.6045C0.751941 12.6715 0.714314 12.7623 0.714314 12.857C0.716298 14.5614 1.39423 16.1954 2.59939 17.4005C3.80455 18.6057 5.43853 19.2836 7.14288 19.2856C7.2376 19.2856 7.32844 19.248 7.39542 19.181C7.46239 19.114 7.50002 19.0232 7.50002 18.9285C7.50002 18.8338 7.46239 18.7429 7.39542 18.6759C7.32844 18.609 7.2376 18.5713 7.14288 18.5713Z" fill="#B9C3FF"/>
<path d="M18.9286 12.4999C18.8338 12.4999 18.743 12.5375 18.676 12.6045C18.609 12.6715 18.5714 12.7623 18.5714 12.857C18.5696 14.372 17.967 15.8244 16.8958 16.8957C15.8245 17.9669 14.3721 18.5695 12.8571 18.5713C12.7624 18.5713 12.6716 18.609 12.6046 18.6759C12.5376 18.7429 12.5 18.8338 12.5 18.9285C12.5 19.0232 12.5376 19.114 12.6046 19.181C12.6716 19.248 12.7624 19.2856 12.8571 19.2856C14.5615 19.2836 16.1955 18.6057 17.4006 17.4005C18.6058 16.1954 19.2837 14.5614 19.2857 12.857C19.2857 12.7623 19.2481 12.6715 19.1811 12.6045C19.1141 12.5375 19.0233 12.4999 18.9286 12.4999Z" fill="#B9C3FF"/>
<path d="M12.8571 1.42834C14.3721 1.43013 15.8245 2.03275 16.8958 3.104C17.967 4.17525 18.5696 5.62766 18.5714 7.14263C18.5714 7.23735 18.609 7.32819 18.676 7.39517C18.743 7.46215 18.8338 7.49977 18.9286 7.49977C19.0233 7.49977 19.1141 7.46215 19.1811 7.39517C19.2481 7.32819 19.2857 7.23735 19.2857 7.14263C19.2837 5.43827 18.6058 3.80429 17.4006 2.59913C16.1955 1.39397 14.5615 0.716035 12.8571 0.71405C12.7624 0.71405 12.6716 0.751678 12.6046 0.818655C12.5376 0.885633 12.5 0.976473 12.5 1.07119C12.5 1.16591 12.5376 1.25675 12.6046 1.32373C12.6716 1.39071 12.7624 1.42834 12.8571 1.42834Z" fill="#B9C3FF"/>
<path d="M3.58968 10.3572C3.67009 11.8291 4.25664 13.2279 5.25003 14.3169C5.86241 13.7737 6.56292 13.3389 7.32146 13.0312C7.21603 12.1436 7.15737 11.251 7.14575 10.3572H3.58968Z" fill="#B9C3FF"/>
<path d="M12.137 9.64291C12.1256 8.76648 12.0749 7.9547 11.992 7.21434C10.6914 7.59622 9.3084 7.59622 8.00775 7.21434C7.9249 7.95541 7.87418 8.7672 7.86275 9.64291H12.137Z" fill="#B9C3FF"/>
<path d="M11.8994 6.49409C11.7719 5.53729 11.5414 4.59707 11.2119 3.6898C10.4117 3.53218 9.58846 3.53218 8.78829 3.6898C8.45878 4.59707 8.22827 5.53729 8.10079 6.49409C9.33709 6.88315 10.6631 6.88315 11.8994 6.49409Z" fill="#B9C3FF"/>
<path d="M7.42137 6.23997C7.5373 5.4514 7.71463 4.67308 7.95172 3.91211C7.14373 4.18554 6.39828 4.61715 5.75887 5.18175C6.25591 5.6171 6.81654 5.97396 7.42137 6.23997Z" fill="#B9C3FF"/>
<path d="M14.2412 5.18175C13.6018 4.61715 12.8563 4.18554 12.0483 3.91211C12.2854 4.67308 12.4628 5.4514 12.5787 6.23997C13.1835 5.97396 13.7442 5.6171 14.2412 5.18175Z" fill="#B9C3FF"/>
<path d="M7.86275 10.3572C7.87418 11.2337 7.9249 12.0455 8.00775 12.7858C9.3084 12.4039 10.6914 12.4039 11.992 12.7858C12.0749 12.0447 12.1256 11.233 12.137 10.3572H7.86275Z" fill="#B9C3FF"/>
<path d="M8.10079 13.5062C8.22827 14.463 8.45878 15.4032 8.78829 16.3105C9.58846 16.4681 10.4117 16.4681 11.2119 16.3105C11.5414 15.4032 11.7719 14.463 11.8994 13.5062C10.6631 13.1172 9.33709 13.1172 8.10079 13.5062Z" fill="#B9C3FF"/>
<path d="M5.25004 5.68312C4.25664 6.77212 3.67009 8.17094 3.58968 9.64277H7.14575C7.1573 8.74948 7.21584 7.85741 7.3211 6.97027C6.56259 6.66208 5.8622 6.22679 5.25004 5.68312Z" fill="#B9C3FF"/>
<path d="M14.7499 5.68312C14.1375 6.22632 13.437 6.66112 12.6784 6.96884C12.7839 7.85645 12.8425 8.74899 12.8541 9.64277H16.4102C16.3298 8.17094 15.7432 6.77212 14.7499 5.68312Z" fill="#B9C3FF"/>
<path d="M12.5787 13.7602C12.4628 14.5488 12.2854 15.3271 12.0483 16.0881C12.8563 15.8146 13.6018 15.383 14.2412 14.8184C13.7442 14.3831 13.1835 14.0262 12.5787 13.7602Z" fill="#B9C3FF"/>
<path d="M5.75887 14.8184C6.39828 15.383 7.14373 15.8146 7.95172 16.0881C7.71463 15.3271 7.5373 14.5488 7.42137 13.7602C6.81654 14.0262 6.25591 14.3831 5.75887 14.8184Z" fill="#B9C3FF"/>
<path d="M12.6784 13.0297C13.437 13.3375 14.1375 13.7723 14.7499 14.3155C15.7429 13.2268 16.3295 11.8286 16.4102 10.3572H12.8541C12.8425 11.2505 12.7838 12.1426 12.6784 13.0297Z" fill="#B9C3FF"/>
</svg>
