<svg width="18" height="21" viewBox="0 0 18 21" fill="none" xmlns="http://www.w3.org/2000/svg">
<path fill-rule="evenodd" clip-rule="evenodd" d="M15.3842 0.200012H2.61598C2.04451 0.200746 1.49668 0.428138 1.09267 0.832296C0.688657 1.23645 0.461465 1.78437 0.460938 2.35583V3.72142C0.461382 4.29289 0.688524 4.84084 1.09252 5.24502C1.49651 5.6492 2.04435 5.8766 2.61582 5.87732H8.49363V7.36146H2.61598C2.04454 7.36221 1.49674 7.58959 1.09273 7.99372C0.688729 8.39785 0.461516 8.94573 0.460938 9.51716V10.8829C0.461434 11.4543 0.688597 12.0022 1.09258 12.4064C1.49657 12.8105 2.04438 13.0379 2.61582 13.0386H8.49367V14.5227H2.61598C2.04452 14.5235 1.49667 14.7508 1.09266 15.155C0.688645 15.5591 0.461454 16.1071 0.460938 16.6785V18.0449C0.461547 18.6163 0.688774 19.1641 1.09276 19.5681C1.49675 19.9721 2.04451 20.1994 2.61586 20.2H15.3842C15.9555 20.1994 16.5033 19.9721 16.9073 19.5681C17.3113 19.1641 17.5385 18.6163 17.5391 18.0449V16.6784C17.5386 16.107 17.3114 15.5591 16.9073 15.1549C16.5033 14.7508 15.9554 14.5235 15.384 14.5228H9.50621V13.0386H15.3842C15.9556 13.0379 16.5034 12.8106 16.9074 12.4064C17.3114 12.0023 17.5386 11.4544 17.5391 10.883V9.51697C17.5385 8.94553 17.3113 8.39764 16.9073 7.99354C16.5033 7.58943 15.9554 7.36211 15.384 7.36146H9.50621V5.87712H15.3842C15.9556 5.87646 16.5034 5.64914 16.9074 5.24503C17.3114 4.84093 17.5386 4.29306 17.5391 3.72165V2.35575C17.5386 1.78432 17.3114 1.23641 16.9074 0.832266C16.5034 0.428118 15.9556 0.200736 15.3842 0.200012ZM3.50527 3.0088V3.06779C3.50527 3.20207 3.45193 3.33086 3.35697 3.42581C3.26202 3.52077 3.13323 3.57411 2.99895 3.57411C2.86466 3.57411 2.73587 3.52077 2.64092 3.42581C2.54596 3.33086 2.49262 3.20207 2.49262 3.06779V3.0088C2.49379 2.87529 2.54765 2.74765 2.64247 2.65365C2.7373 2.55966 2.86541 2.50692 2.99893 2.50692C3.13244 2.50692 3.26055 2.55966 3.35538 2.65365C3.4502 2.74765 3.5041 2.87529 3.50527 3.0088ZM5.08383 3.0088V3.06779C5.08383 3.20208 5.03048 3.33088 4.93552 3.42584C4.84055 3.5208 4.71176 3.57415 4.57746 3.57415C4.44316 3.57415 4.31437 3.5208 4.21941 3.42584C4.12444 3.33088 4.07109 3.20208 4.07109 3.06779V3.00872C4.07227 2.87521 4.12613 2.74757 4.22095 2.65357C4.31577 2.55958 4.44389 2.50684 4.5774 2.50684C4.71092 2.50684 4.83903 2.55958 4.93386 2.65357C5.02868 2.74757 5.08254 2.87521 5.08371 3.00872L5.08383 3.0088ZM6.66168 3.0088V3.06779C6.66051 3.20132 6.60664 3.32898 6.5118 3.42299C6.41696 3.517 6.28883 3.56974 6.15529 3.56974C6.02176 3.56974 5.89362 3.517 5.79879 3.42299C5.70395 3.32898 5.65008 3.20132 5.64891 3.06779V3.00872C5.65008 2.87522 5.70394 2.74759 5.79875 2.6536C5.89357 2.55961 6.02167 2.50688 6.15518 2.50688C6.28868 2.50688 6.41678 2.55961 6.5116 2.6536C6.60642 2.74759 6.66027 2.87522 6.66145 3.00872L6.66168 3.0088ZM8.24008 3.0088V3.06779C8.23891 3.20131 8.18504 3.32896 8.09021 3.42296C7.99538 3.51696 7.86726 3.56971 7.73373 3.56971C7.6002 3.56971 7.47208 3.51696 7.37725 3.42296C7.28242 3.32896 7.22856 3.20131 7.22738 3.06779V3.0088C7.22738 2.87451 7.28073 2.74573 7.37568 2.65077C7.47064 2.55582 7.59942 2.50247 7.73371 2.50247C7.868 2.50247 7.99678 2.55582 8.09174 2.65077C8.18669 2.74573 8.24004 2.87451 8.24004 3.0088H8.24008ZM15.4255 3.03872C15.4254 3.17299 15.372 3.30173 15.2771 3.39668C15.1821 3.49162 15.0534 3.545 14.9191 3.54509L10.5553 3.54482C10.421 3.54482 10.2923 3.49148 10.1973 3.39655C10.1024 3.30162 10.0491 3.17286 10.0491 3.03861C10.0491 2.90435 10.1024 2.77559 10.1973 2.68066C10.2923 2.58573 10.421 2.53239 10.5553 2.53239H14.9189C15.0532 2.53249 15.182 2.58587 15.2769 2.68081C15.3718 2.77575 15.4252 2.90449 15.4253 3.03876L15.4255 3.03872ZM2.4925 10.1709C2.49367 10.0374 2.54753 9.90972 2.64236 9.81572C2.73718 9.72173 2.86529 9.66899 2.99881 9.66899C3.13232 9.66899 3.26044 9.72173 3.35526 9.81572C3.45008 9.90972 3.50394 10.0374 3.50512 10.1709V10.2298C3.50512 10.3641 3.45177 10.4929 3.35682 10.5878C3.26186 10.6828 3.13308 10.7361 2.99879 10.7361C2.8645 10.7361 2.73572 10.6828 2.64076 10.5878C2.54581 10.4929 2.49246 10.3641 2.49246 10.2298V10.1708L2.4925 10.1709ZM4.07105 10.2299V10.1709C4.07047 10.104 4.08313 10.0377 4.10831 9.97576C4.13349 9.91382 4.17069 9.85748 4.21776 9.81C4.26482 9.76252 4.32083 9.72482 4.38255 9.6991C4.44426 9.67338 4.51046 9.66014 4.57732 9.66014C4.64419 9.66014 4.71038 9.67338 4.7721 9.6991C4.83382 9.72482 4.88982 9.76252 4.93689 9.81C4.98396 9.85748 5.02116 9.91382 5.04634 9.97576C5.07152 10.0377 5.08418 10.104 5.08359 10.1709V10.2298C5.08242 10.3633 5.02856 10.4909 4.93374 10.5849C4.83891 10.6789 4.7108 10.7317 4.57729 10.7317C4.44377 10.7317 4.31566 10.6789 4.22083 10.5849C4.12601 10.4909 4.07215 10.3633 4.07098 10.2298L4.07105 10.2299ZM5.64887 10.2299V10.1709C5.64828 10.104 5.66094 10.0377 5.68612 9.97576C5.7113 9.91382 5.7485 9.85748 5.79557 9.81C5.84264 9.76252 5.89865 9.72482 5.96036 9.6991C6.02208 9.67338 6.08828 9.66014 6.15514 9.66014C6.222 9.66014 6.2882 9.67338 6.34991 9.6991C6.41163 9.72482 6.46764 9.76252 6.51471 9.81C6.56178 9.85748 6.59897 9.91382 6.62415 9.97576C6.64933 10.0377 6.66199 10.104 6.66141 10.1709V10.2298C6.66141 10.3641 6.60806 10.4929 6.51311 10.5878C6.41815 10.6828 6.28936 10.7361 6.15508 10.7361C6.02079 10.7361 5.89201 10.6828 5.79705 10.5878C5.7021 10.4929 5.64875 10.3641 5.64875 10.2298L5.64887 10.2299ZM7.22727 10.2299V10.1709C7.22727 10.0366 7.28061 9.9078 7.37557 9.81284C7.47052 9.71789 7.59931 9.66454 7.73359 9.66454C7.86788 9.66454 7.99667 9.71789 8.09162 9.81284C8.18658 9.9078 8.23992 10.0366 8.23992 10.1709V10.2298C8.23992 10.3641 8.18658 10.4929 8.09162 10.5878C7.99667 10.6828 7.86788 10.7361 7.73359 10.7361C7.59931 10.7361 7.47052 10.6828 7.37557 10.5878C7.28061 10.4929 7.22727 10.3641 7.22727 10.2298V10.2299ZM10.0487 10.2C10.0487 10.1335 10.0618 10.0677 10.0872 10.0063C10.1127 9.94485 10.15 9.88904 10.197 9.84204C10.244 9.79504 10.2999 9.75776 10.3613 9.73234C10.4227 9.70692 10.4886 9.69385 10.555 9.69388L14.9189 9.69365C15.0533 9.69365 15.1821 9.747 15.277 9.84197C15.372 9.93694 15.4254 10.0657 15.4254 10.2001C15.4254 10.3344 15.372 10.4632 15.277 10.5581C15.1821 10.6531 15.0533 10.7065 14.9189 10.7065H10.5551C10.4886 10.7065 10.4227 10.6934 10.3613 10.668C10.2998 10.6425 10.244 10.6052 10.197 10.5582C10.1499 10.5112 10.1126 10.4553 10.0872 10.3939C10.0618 10.3324 10.0487 10.2665 10.0487 10.2ZM2.4925 17.3321C2.4937 17.1986 2.54759 17.0709 2.64244 16.977C2.73728 16.883 2.86541 16.8303 2.99892 16.8303C3.13244 16.8303 3.26054 16.8831 3.35534 16.9771C3.45015 17.0711 3.50398 17.1988 3.50512 17.3323V17.3909C3.50512 17.4574 3.49202 17.5232 3.46658 17.5847C3.44113 17.6461 3.40383 17.7019 3.35682 17.7489C3.3098 17.796 3.25398 17.8333 3.19255 17.8587C3.13112 17.8841 3.06528 17.8972 2.99879 17.8972C2.9323 17.8972 2.86646 17.8841 2.80503 17.8587C2.7436 17.8333 2.68778 17.796 2.64076 17.7489C2.59374 17.7019 2.55645 17.6461 2.531 17.5847C2.50556 17.5232 2.49246 17.4574 2.49246 17.3909V17.3318L2.4925 17.3321ZM4.07105 17.391V17.3321C4.07226 17.1986 4.12614 17.071 4.22098 16.977C4.31582 16.883 4.44393 16.8303 4.57744 16.8304C4.71095 16.8304 4.83904 16.8832 4.93383 16.9772C5.02863 17.0712 5.08245 17.1988 5.08359 17.3323V17.3909C5.08418 17.4578 5.07152 17.5241 5.04634 17.586C5.02116 17.648 4.98396 17.7043 4.93688 17.7518C4.88981 17.7993 4.8338 17.837 4.77208 17.8627C4.71036 17.8884 4.64415 17.9017 4.57729 17.9017C4.51042 17.9017 4.44422 17.8884 4.3825 17.8627C4.32078 17.837 4.26476 17.7993 4.21769 17.7518C4.17061 17.7043 4.13341 17.648 4.10823 17.586C4.08305 17.5241 4.07039 17.4578 4.07098 17.3909L4.07105 17.391ZM5.64887 17.391V17.3321C5.65007 17.1986 5.70396 17.071 5.79879 16.977C5.89363 16.883 6.02175 16.8303 6.15525 16.8304C6.28876 16.8304 6.41685 16.8832 6.51165 16.9772C6.60644 17.0712 6.66027 17.1988 6.66141 17.3323V17.3909C6.66141 17.5252 6.60806 17.654 6.51311 17.7489C6.41815 17.8439 6.28936 17.8972 6.15508 17.8972C6.02079 17.8972 5.89201 17.8439 5.79705 17.7489C5.7021 17.654 5.64875 17.5252 5.64875 17.3909L5.64887 17.391ZM7.22727 17.391V17.3321C7.2273 17.1978 7.28067 17.069 7.37565 16.9741C7.47063 16.8792 7.59942 16.8258 7.73371 16.8259C7.868 16.8259 7.99677 16.8793 8.0917 16.9743C8.18664 17.0692 8.23995 17.198 8.23992 17.3323V17.3909C8.23992 17.5252 8.18658 17.654 8.09162 17.7489C7.99667 17.8439 7.86788 17.8972 7.73359 17.8972C7.59931 17.8972 7.47052 17.8439 7.37557 17.7489C7.28061 17.654 7.22727 17.5252 7.22727 17.3909V17.391ZM10.0487 17.3611C10.0487 17.2946 10.0618 17.2288 10.0873 17.1674C10.1127 17.106 10.15 17.0502 10.197 17.0032C10.2441 16.9562 10.2999 16.9189 10.3613 16.8935C10.4227 16.8681 10.4886 16.855 10.555 16.8551H14.9189C15.0525 16.8563 15.1801 16.9101 15.2741 17.0049C15.3681 17.0998 15.4208 17.2279 15.4208 17.3614C15.4208 17.4949 15.3681 17.623 15.2741 17.7178C15.1801 17.8127 15.0525 17.8665 14.9189 17.8677H10.5551C10.4886 17.8677 10.4227 17.8547 10.3612 17.8292C10.2998 17.8038 10.2439 17.7664 10.1969 17.7194C10.1499 17.6723 10.1126 17.6165 10.0871 17.555C10.0617 17.4935 10.0486 17.4276 10.0487 17.3611Z" fill="#B9C3FF"/>
</svg>
