<svg width="200" height="32" viewBox="0 0 200 32" fill="none" xmlns="http://www.w3.org/2000/svg">
<g clip-path="url(#clip0_8156_37729)">
<g clip-path="url(#clip1_8156_37729)">
<g clip-path="url(#clip2_8156_37729)">
<g clip-path="url(#clip3_8156_37729)">
<g clip-path="url(#clip4_8156_37729)">
<g clip-path="url(#clip5_8156_37729)">
<g clip-path="url(#clip6_8156_37729)">
<path d="M50.6609 27.17L49.4606 22.5952H43.3085L42.1146 27.17H37.345L44.3266 4.83025H48.4489L55.4744 27.17H50.6609ZM46.3814 10.8755L44.2951 18.8373H48.4677L46.3814 10.8755ZM73.1828 4.83025V27.17H68.6709L62.0727 12.5156V27.17H57.5607V4.83025H62.0727L68.6835 19.4972V4.83025H73.1828ZM90.8221 4.83025V8.5881H85.2984V27.17H80.7739V8.5881H75.3445V4.83025H90.8221ZM98.1241 4.83025V27.17H93.6122V4.83025H98.1241ZM107.695 27.17H101.913V4.83025H107.82C110.426 4.83025 112.504 5.65974 114.054 7.31872C115.604 8.97352 116.394 11.2441 116.423 14.1306V17.7502C116.423 20.6869 115.648 22.9911 114.098 24.6626C112.548 26.3342 110.414 27.17 107.695 27.17ZM108.065 8.5881H106.419V23.4247H107.77C109.274 23.4247 110.334 23.0288 110.95 22.237C111.561 21.4452 111.882 20.0774 111.911 18.1335V14.25C111.911 12.1637 111.62 10.71 111.038 9.88889C110.455 9.06359 109.465 8.62999 108.065 8.5881ZM131.197 13.8667V17.5051H124.171V23.4247H132.485V27.17H119.66V4.83025H132.454V8.5881H124.171V13.8667H131.197ZM149.848 4.83025V8.5881H144.331V27.17H139.8V8.5881H134.37V4.83025H149.848ZM163.981 13.8667V17.5051H156.955V23.4247H165.269V27.17H152.443V4.83025H165.238V8.5881H156.955V13.8667H163.981ZM178.491 19.7297H183.003C182.889 22.2768 182.173 24.2039 180.853 25.511C179.534 26.8223 177.672 27.4779 175.267 27.4779C172.741 27.4779 170.805 26.6463 169.46 24.9831C168.116 23.32 167.443 20.9509 167.443 17.8759V14.1118C167.443 11.0452 168.139 8.68026 169.53 7.01709C170.92 5.35391 172.854 4.52233 175.33 4.52233C177.764 4.52233 179.613 5.2031 180.879 6.56464C182.14 7.92618 182.858 9.88051 183.034 12.4276H178.509C178.468 10.8524 178.225 9.7653 177.781 9.16623C177.332 8.56715 176.515 8.26761 175.33 8.26761C174.123 8.26761 173.269 8.69073 172.766 9.53698C172.267 10.379 172.001 11.7657 171.968 13.697V17.9199C171.968 20.1402 172.217 21.6631 172.716 22.4884C173.21 23.3179 174.06 23.7326 175.267 23.7326C176.457 23.7326 177.276 23.4435 177.724 22.8654C178.172 22.2873 178.428 21.242 178.491 19.7297ZM199.8 4.83025V8.5881H194.276V27.17H189.752V8.5881H184.322V4.83025H199.8Z" fill="white"/>
</g>
</g>
</g>
</g>
<g clip-path="url(#clip7_8156_37729)">
<g clip-path="url(#clip8_8156_37729)">
<path d="M19.2831 11.7741L17.6125 14.41C18.0226 14.8155 18.2767 15.3777 18.2767 16C18.2767 17.2349 17.2755 18.2361 16.0406 18.2361C14.8056 18.2361 13.8045 17.2349 13.8045 16C13.8045 14.765 14.8056 13.7639 16.0406 13.7639C16.284 13.7639 16.5182 13.8033 16.7375 13.8751L18.4138 11.23C17.6992 10.8735 16.8935 10.672 16.0406 10.672C13.0983 10.672 10.7133 13.057 10.7133 15.9993C10.7133 18.9415 13.0983 21.3268 16.0406 21.3268C18.9828 21.3268 21.3678 18.9419 21.3678 15.9993C21.3678 14.2778 20.5504 12.7478 19.2831 11.7741Z" fill="white" stroke="white" stroke-width="0.133326" stroke-miterlimit="10"/>
<path d="M22.0228 7.45121L19.668 11.1668C21.1347 12.2692 22.0832 14.0234 22.0832 15.9997C22.0832 19.3367 19.378 22.0423 16.0406 22.0423C12.7031 22.0423 9.99794 19.3371 9.99794 15.9997C9.99794 12.6626 12.7031 9.95704 16.0406 9.95704C17.0342 9.95704 17.9714 10.1983 18.7984 10.6234L21.1553 6.90427C19.6438 6.05241 17.8992 5.56589 16.0406 5.56589C15.7175 5.56589 15.3984 5.58153 15.0832 5.60996C15.0601 6.45755 14.3671 7.13812 13.5138 7.13812C12.9196 7.13812 12.4028 6.80832 12.1356 6.3218C8.30808 7.86772 5.60715 11.6178 5.60715 15.999C5.60715 21.7612 10.2783 26.4324 16.0406 26.4324C21.8028 26.4324 26.474 21.7612 26.474 15.999C26.474 12.4632 24.7141 9.33831 22.0228 7.45121Z" fill="white" stroke="white" stroke-width="0.133326" stroke-miterlimit="10"/>
<path d="M24.9313 2.86186L22.3956 6.8628C25.2814 8.87357 27.1702 12.216 27.1702 15.9998C27.1702 22.1465 22.1874 27.1294 16.0406 27.1294C9.89385 27.1294 4.91099 22.1465 4.91099 15.9998C4.91099 11.2987 7.82551 7.2786 11.9462 5.64773C11.9448 5.62108 11.9423 5.59443 11.9423 5.56742C11.9423 4.69956 12.646 3.9959 13.5138 3.9959C14.1521 3.9959 14.7004 4.37723 14.9464 4.92381C15.3064 4.88863 15.6714 4.87015 16.0406 4.87015C18.0365 4.87015 19.909 5.39577 21.5285 6.31586L24.0642 2.31492C21.7101 0.931763 18.9683 0.137831 16.0406 0.137831C7.27999 0.137831 0.178314 7.23951 0.178314 16.0001C0.178314 24.7607 7.27999 31.8624 16.0406 31.8624C24.8012 31.8624 31.9029 24.7607 31.9029 16.0001C31.9029 10.5343 29.1384 5.71455 24.9313 2.86186Z" fill="white" stroke="white" stroke-width="0.133326" stroke-miterlimit="10"/>
</g>
</g>
</g>
</g>
</g>
<defs>
<clipPath id="clip0_8156_37729">
<rect width="200" height="31.8" fill="white" transform="translate(0 0.1)"/>
</clipPath>
<clipPath id="clip1_8156_37729">
<rect width="199.643" height="31.7246" fill="white" transform="translate(0.178314 0.137831)"/>
</clipPath>
<clipPath id="clip2_8156_37729">
<rect width="199.643" height="31.7246" fill="white" transform="translate(0.178314 0.137831)"/>
</clipPath>
<clipPath id="clip3_8156_37729">
<rect width="162.5" height="22.9556" fill="white" transform="translate(37.3221 4.52227)"/>
</clipPath>
<clipPath id="clip4_8156_37729">
<rect width="162.5" height="22.9556" fill="white" transform="translate(37.3221 4.52227)"/>
</clipPath>
<clipPath id="clip5_8156_37729">
<rect width="162.5" height="22.9556" fill="white" transform="translate(37.3221 4.52227)"/>
</clipPath>
<clipPath id="clip6_8156_37729">
<rect width="162.5" height="22.9556" fill="white" transform="translate(37.3221 4.52227)"/>
</clipPath>
<clipPath id="clip7_8156_37729">
<rect width="31.7246" height="31.7246" fill="white" transform="translate(0.178314 0.137831)"/>
</clipPath>
<clipPath id="clip8_8156_37729">
<rect width="31.7246" height="31.7246" fill="white" transform="translate(0.178314 0.137831)"/>
</clipPath>
</defs>
</svg>
